<svg width="456" height="456" viewBox="0 0 456 456" fill="none" xmlns="http://www.w3.org/2000/svg">
<g clip-path="url(#clip0_1_9)">
<mask id="mask0_1_9" style="mask-type:luminance" maskUnits="userSpaceOnUse" x="0" y="0" width="456" height="456">
<path d="M456 0H0V456H456V0Z" fill="white"/>
</mask>
<g mask="url(#mask0_1_9)">
<path d="M456 0H0V456H456V0Z" fill="black"/>
</g>
<path d="M168.844 150.571H173.987V155.714H168.844V150.571ZM173.987 150.571H179.129V155.714H173.987V150.571ZM173.987 155.714H179.129V160.857H173.987V155.714ZM173.987 160.857H179.129V166H173.987V160.857ZM173.987 166H179.129V171.143H173.987V166ZM168.844 166H173.987V171.143H168.844V166ZM168.844 160.857H173.987V166H168.844V160.857ZM168.844 155.714H173.987V160.857H168.844V155.714ZM168.844 171.143H173.987V176.286H168.844V171.143ZM168.844 176.286H173.987V181.429H168.844V176.286ZM168.844 181.429H173.987V186.571H168.844V181.429ZM173.987 176.286H179.129V181.429H173.987V176.286ZM173.987 171.143H179.129V176.286H173.987V171.143ZM173.987 181.429H179.129V186.571H173.987V181.429ZM173.987 186.571H179.129V191.714H173.987V186.571ZM168.844 191.714H173.987V196.857H168.844V191.714ZM168.844 186.571H173.987V191.714H168.844V186.571ZM168.844 196.857H173.987V202H168.844V196.857ZM173.987 196.857H179.129V202H173.987V196.857ZM173.987 191.714H179.129V196.857H173.987V191.714ZM179.129 196.857H184.272V202H179.129V196.857ZM184.272 196.857H189.415V202H184.272V196.857ZM189.415 196.857H194.558V202H189.415V196.857ZM189.415 191.714H194.558V196.857H189.415V191.714ZM184.272 191.714H189.415V196.857H184.272V191.714ZM179.129 191.714H184.272V196.857H179.129V191.714ZM179.129 150.571H184.272V155.714H179.129V150.571ZM184.272 150.571H189.415V155.714H184.272V150.571ZM189.415 150.571H194.558V155.714H189.415V150.571ZM194.558 150.571H199.701V155.714H194.558V150.571ZM189.415 155.714H194.558V160.857H189.415V155.714ZM184.272 155.714H189.415V160.857H184.272V155.714ZM179.129 155.714H184.272V160.857H179.129V155.714ZM179.129 176.286H184.272V181.429H179.129V176.286ZM184.272 171.143H189.415V176.286H184.272V171.143ZM179.129 171.143H184.272V176.286H179.129V171.143ZM184.272 176.286H189.415V181.429H184.272V176.286ZM194.558 155.714H199.701V160.857H194.558V155.714ZM194.558 191.714H199.701V196.857H194.558V191.714ZM194.558 196.857H199.701V202H194.558V196.857ZM189.415 171.143H194.558V176.286H189.415V171.143ZM189.415 176.286H194.558V181.429H189.415V176.286ZM215.129 150.571H220.272V155.714H215.129V150.571ZM209.987 150.571H215.129V155.714H209.987V150.571ZM209.987 155.714H215.129V160.857H209.987V155.714ZM215.129 155.714H220.272V160.857H215.129V155.714ZM220.272 155.714H225.415V160.857H220.272V155.714ZM220.272 150.571H225.415V155.714H220.272V150.571ZM225.415 150.571H230.558V155.714H225.415V150.571ZM230.558 150.571H235.701V155.714H230.558V150.571ZM230.558 155.714H235.701V160.857H230.558V155.714ZM225.415 155.714H230.558V160.857H225.415V155.714ZM225.415 160.857H230.558V166H225.415V160.857ZM230.558 160.857H235.701V166H230.558V160.857ZM235.701 155.714H240.844V160.857H235.701V155.714ZM235.701 160.857H240.844V166H235.701V160.857ZM235.701 166H240.844V171.143H235.701V166ZM235.701 171.143H240.844V176.286H235.701V171.143ZM235.701 176.286H240.844V181.429H235.701V176.286ZM235.701 181.429H240.844V186.571H235.701V181.429ZM235.701 186.571H240.844V191.714H235.701V186.571ZM235.701 191.714H240.844V196.857H235.701V191.714ZM230.558 191.714H235.701V196.857H230.558V191.714ZM230.558 186.571H235.701V191.714H230.558V186.571ZM230.558 181.429H235.701V186.571H230.558V181.429ZM230.558 176.286H235.701V181.429H230.558V176.286ZM230.558 171.143H235.701V176.286H230.558V171.143ZM230.558 166H235.701V171.143H230.558V166ZM225.415 186.571H230.558V191.714H225.415V186.571ZM225.415 191.714H230.558V196.857H225.415V191.714ZM230.558 196.857H235.701V202H230.558V196.857ZM225.415 196.857H230.558V202H225.415V196.857ZM220.272 196.857H225.415V202H220.272V196.857ZM220.272 191.714H225.415V196.857H220.272V191.714ZM215.129 196.857H220.272V202H215.129V196.857ZM209.987 196.857H215.129V202H209.987V196.857ZM209.987 191.714H215.129V196.857H209.987V191.714ZM215.129 191.714H220.272V196.857H215.129V191.714ZM209.987 186.571H215.129V191.714H209.987V186.571ZM204.844 191.714H209.987V196.857H204.844V191.714ZM204.844 186.571H209.987V191.714H204.844V186.571ZM204.844 181.429H209.987V186.571H204.844V181.429ZM204.844 176.286H209.987V181.429H204.844V176.286ZM204.844 171.143H209.987V176.286H204.844V171.143ZM204.844 166H209.987V171.143H204.844V166ZM204.844 160.857H209.987V166H204.844V160.857ZM209.987 160.857H215.129V166H209.987V160.857ZM204.844 155.714H209.987V160.857H204.844V155.714ZM209.987 166H215.129V171.143H209.987V166ZM209.987 171.143H215.129V176.286H209.987V171.143ZM209.987 176.286H215.129V181.429H209.987V176.286ZM209.987 181.429H215.129V186.571H209.987V181.429ZM204.844 196.857H209.987V202H204.844V196.857ZM204.844 150.571H209.987V155.714H204.844V150.571ZM251.143 155.714H256.286V160.857H251.143V155.714ZM271.714 155.714H276.857V160.857H271.714V155.714ZM271.714 160.857H276.857V166H271.714V160.857ZM276.857 155.714H282V160.857H276.857V155.714ZM276.857 160.857H282V166H276.857V160.857ZM276.857 166H282V171.143H276.857V166ZM276.857 171.143H282V176.286H276.857V171.143ZM276.857 176.286H282V181.429H276.857V176.286ZM276.857 181.429H282V186.571H276.857V181.429ZM276.857 186.571H282V191.714H276.857V186.571ZM276.857 191.714H282V196.857H276.857V191.714ZM271.714 191.714H276.857V196.857H271.714V191.714ZM271.714 186.571H276.857V191.714H271.714V186.571ZM271.714 181.429H276.857V186.571H271.714V181.429ZM271.714 176.286H276.857V181.429H271.714V176.286ZM271.714 171.143H276.857V176.286H271.714V171.143ZM271.714 166H276.857V171.143H271.714V166ZM266.571 186.571H271.714V191.714H266.571V186.571ZM266.571 191.714H271.714V196.857H266.571V191.714ZM271.714 196.857H276.857V202H271.714V196.857ZM266.571 196.857H271.714V202H266.571V196.857ZM261.429 196.857H266.571V202H261.429V196.857ZM261.429 191.714H266.571V196.857H261.429V191.714ZM256.286 196.857H261.429V202H256.286V196.857ZM251.143 196.857H256.286V202H251.143V196.857ZM251.143 191.714H256.286V196.857H251.143V191.714ZM256.286 191.714H261.429V196.857H256.286V191.714ZM256.286 186.571H261.429V191.714H256.286V186.571ZM251.143 186.571H256.286V191.714H251.143V186.571ZM246 191.714H251.143V196.857H246V191.714ZM246 186.571H251.143V191.714H246V186.571ZM246 181.429H251.143V186.571H246V181.429ZM246 176.286H251.143V181.429H246V176.286ZM246 171.143H251.143V176.286H246V171.143ZM246 166H251.143V171.143H246V166ZM246 160.857H251.143V166H246V160.857ZM251.143 160.857H256.286V166H251.143V160.857ZM246 155.714H251.143V160.857H246V155.714ZM251.143 166H256.286V171.143H251.143V166ZM251.143 171.143H256.286V176.286H251.143V171.143ZM251.143 176.286H256.286V181.429H251.143V176.286ZM251.143 181.429H256.286V186.571H251.143V181.429ZM246 150.571H251.143V155.714H246V150.571ZM251.143 150.571H256.286V155.714H251.143V150.571ZM271.714 150.571H276.857V155.714H271.714V150.571ZM276.857 150.571H282V155.714H276.857V150.571ZM148.266 253.571H153.408V258.714H148.266V253.571ZM153.408 253.571H158.551V258.714H153.408V253.571ZM158.551 253.571H163.694V258.714H158.551V253.571ZM163.694 253.571H168.837V258.714H163.694V253.571ZM168.837 253.571H173.98V258.714H168.837V253.571ZM173.98 253.571H179.123V258.714H173.98V253.571ZM173.98 258.714H179.123V263.857H173.98V258.714ZM168.837 258.714H173.98V263.857H168.837V258.714ZM163.694 258.714H168.837V263.857H163.694V258.714ZM158.551 258.714H163.694V263.857H158.551V258.714ZM153.408 258.714H158.551V263.857H153.408V258.714ZM148.266 258.714H153.408V263.857H148.266V258.714ZM179.123 258.714H184.266V263.857H179.123V258.714ZM173.98 263.857H179.123V269H173.98V263.857ZM179.123 263.857H184.266V269H179.123V263.857ZM179.123 269H184.266V274.143H179.123V269ZM179.123 274.143H184.266V279.286H179.123V274.143ZM173.98 274.143H179.123V279.286H173.98V274.143ZM173.98 269H179.123V274.143H173.98V269ZM173.98 279.286H179.123V284.429H173.98V279.286ZM173.98 284.429H179.123V289.571H173.98V284.429ZM168.837 284.429H173.98V289.571H168.837V284.429ZM168.837 279.286H173.98V284.429H168.837V279.286ZM163.694 279.286H168.837V284.429H163.694V279.286ZM163.694 284.429H168.837V289.571H163.694V284.429ZM158.551 284.429H163.694V289.571H158.551V284.429ZM158.551 279.286H163.694V284.429H158.551V279.286ZM153.408 279.286H158.551V284.429H153.408V279.286ZM148.266 279.286H153.408V284.429H148.266V279.286ZM148.266 284.429H153.408V289.571H148.266V284.429ZM153.408 284.429H158.551V289.571H153.408V284.429ZM148.266 263.857H153.408V269H148.266V263.857ZM153.408 263.857H158.551V269H153.408V263.857ZM153.408 269H158.551V274.143H153.408V269ZM153.408 274.143H158.551V279.286H153.408V274.143ZM148.266 269H153.408V274.143H148.266V269ZM148.266 274.143H153.408V279.286H148.266V274.143ZM148.266 289.571H153.408V294.714H148.266V289.571ZM153.408 289.571H158.551V294.714H153.408V289.571ZM153.408 294.714H158.551V299.857H153.408V294.714ZM153.408 299.857H158.551V305H153.408V299.857ZM148.266 299.857H153.408V305H148.266V299.857ZM148.266 294.714H153.408V299.857H148.266V294.714ZM179.123 279.286H184.266V284.429H179.123V279.286ZM189.422 253.571H194.565V258.714H189.422V253.571ZM194.565 253.571H199.708V258.714H194.565V253.571ZM194.565 258.714H199.708V263.857H194.565V258.714ZM194.565 263.857H199.708V269H194.565V263.857ZM194.565 269H199.708V274.143H194.565V269ZM189.422 269H194.565V274.143H189.422V269ZM189.422 263.857H194.565V269H189.422V263.857ZM189.422 258.714H194.565V263.857H189.422V258.714ZM189.422 274.143H194.565V279.286H189.422V274.143ZM189.422 279.286H194.565V284.429H189.422V279.286ZM189.422 284.429H194.565V289.571H189.422V284.429ZM194.565 279.286H199.708V284.429H194.565V279.286ZM194.565 274.143H199.708V279.286H194.565V274.143ZM194.565 284.429H199.708V289.571H194.565V284.429ZM194.565 289.571H199.708V294.714H194.565V289.571ZM189.422 294.714H194.565V299.857H189.422V294.714ZM189.422 289.571H194.565V294.714H189.422V289.571ZM189.422 299.857H194.565V305H189.422V299.857ZM194.565 299.857H199.708V305H194.565V299.857ZM194.565 294.714H199.708V299.857H194.565V294.714ZM199.708 299.857H204.85V305H199.708V299.857ZM204.85 299.857H209.993V305H204.85V299.857ZM209.993 299.857H215.136V305H209.993V299.857ZM209.993 294.714H215.136V299.857H209.993V294.714ZM204.85 294.714H209.993V299.857H204.85V294.714ZM199.708 294.714H204.85V299.857H199.708V294.714ZM230.551 258.714H235.694V263.857H230.551V258.714ZM235.694 258.714H240.837V263.857H235.694V258.714ZM235.694 253.571H240.837V258.714H235.694V253.571ZM240.837 258.714H245.98V263.857H240.837V258.714ZM240.837 263.857H245.98V269H240.837V263.857ZM245.98 263.857H251.123V269H245.98V263.857ZM235.694 263.857H240.837V269H235.694V263.857ZM230.551 263.857H235.694V269H230.551V263.857ZM225.408 263.857H230.551V269H225.408V263.857ZM225.408 269H230.551V274.143H225.408V269ZM220.266 269H225.408V274.143H220.266V269ZM230.551 269H235.694V274.143H230.551V269ZM225.408 274.143H230.551V279.286H225.408V274.143ZM225.408 279.286H230.551V284.429H225.408V279.286ZM225.408 284.429H230.551V289.571H225.408V284.429ZM230.551 284.429H235.694V289.571H230.551V284.429ZM235.694 284.429H240.837V289.571H235.694V284.429ZM240.837 284.429H245.98V289.571H240.837V284.429ZM245.98 284.429H251.123V289.571H245.98V284.429ZM251.123 284.429H256.266V289.571H251.123V284.429ZM251.123 279.286H256.266V284.429H251.123V279.286ZM251.123 274.143H256.266V279.286H251.123V274.143ZM251.123 269H256.266V274.143H251.123V269ZM245.98 269H251.123V274.143H245.98V269ZM240.837 269H245.98V274.143H240.837V269ZM245.98 274.143H251.123V279.286H245.98V274.143ZM245.98 279.286H251.123V284.429H245.98V279.286ZM245.98 289.571H251.123V294.714H245.98V289.571ZM251.123 289.571H256.266V294.714H251.123V289.571ZM251.123 294.714H256.266V299.857H251.123V294.714ZM251.123 299.857H256.266V305H251.123V299.857ZM245.98 299.857H251.123V305H245.98V299.857ZM245.98 294.714H251.123V299.857H245.98V294.714ZM240.837 289.571H245.98V294.714H240.837V289.571ZM235.694 289.571H240.837V294.714H235.694V289.571ZM230.551 289.571H235.694V294.714H230.551V289.571ZM225.408 289.571H230.551V294.714H225.408V289.571ZM225.408 294.714H230.551V299.857H225.408V294.714ZM225.408 299.857H230.551V305H225.408V299.857ZM220.266 299.857H225.408V305H220.266V299.857ZM220.266 294.714H225.408V299.857H220.266V294.714ZM220.266 289.571H225.408V294.714H220.266V289.571ZM220.266 284.429H225.408V289.571H220.266V284.429ZM220.266 279.286H225.408V284.429H220.266V279.286ZM220.266 274.143H225.408V279.286H220.266V274.143ZM261.422 253.571H266.565V258.714H261.422V253.571ZM266.565 253.571H271.708V258.714H266.565V253.571ZM266.565 258.714H271.708V263.857H266.565V258.714ZM266.565 263.857H271.708V269H266.565V263.857ZM261.422 263.857H266.565V269H261.422V263.857ZM261.422 258.714H266.565V263.857H261.422V258.714ZM261.422 269H266.565V274.143H261.422V269ZM261.422 274.143H266.565V279.286H261.422V274.143ZM266.565 274.143H271.708V279.286H266.565V274.143ZM266.565 269H271.708V274.143H266.565V269ZM266.565 279.286H271.708V284.429H266.565V279.286ZM271.708 279.286H276.85V284.429H271.708V279.286ZM271.708 274.143H276.85V279.286H271.708V274.143ZM271.708 284.429H276.85V289.571H271.708V284.429ZM276.85 284.429H281.993V289.571H276.85V284.429ZM276.85 279.286H281.993V284.429H276.85V279.286ZM281.993 279.286H287.136V284.429H281.993V279.286ZM281.993 284.429H287.136V289.571H281.993V284.429ZM287.136 284.429H292.279V289.571H287.136V284.429ZM287.136 279.286H292.279V284.429H287.136V279.286ZM287.136 274.143H292.279V279.286H287.136V274.143ZM292.279 274.143H297.422V279.286H292.279V274.143ZM292.279 279.286H297.422V284.429H292.279V279.286ZM292.279 269H297.422V274.143H292.279V269ZM292.279 263.857H297.422V269H292.279V263.857ZM292.279 258.714H297.422V263.857H292.279V258.714ZM292.279 253.571H297.422V258.714H292.279V253.571ZM297.422 253.571H302.565V258.714H297.422V253.571ZM297.422 258.714H302.565V263.857H297.422V258.714ZM297.422 263.857H302.565V269H297.422V263.857ZM297.422 269H302.565V274.143H297.422V269ZM297.422 274.143H302.565V279.286H297.422V274.143ZM276.85 289.571H281.993V294.714H276.85V289.571ZM276.85 294.714H281.993V299.857H276.85V294.714ZM276.85 299.857H281.993V305H276.85V299.857ZM281.993 299.857H287.136V305H281.993V299.857ZM281.993 294.714H287.136V299.857H281.993V294.714ZM281.993 289.571H287.136V294.714H281.993V289.571Z" fill="white"/>
</g>
<defs>
<clipPath id="clip0_1_9">
<rect width="456" height="456" fill="white"/>
</clipPath>
</defs>
</svg>
