<svg width="456" height="456" viewBox="0 0 456 456" fill="none" xmlns="http://www.w3.org/2000/svg">
<g clip-path="url(#clip0_1_5)">
<path d="M179.844 150.571H184.987V155.714H179.844V150.571ZM184.987 150.571H190.129V155.714H184.987V150.571ZM184.987 155.714H190.129V160.857H184.987V155.714ZM184.987 160.857H190.129V166H184.987V160.857ZM184.987 166H190.129V171.143H184.987V166ZM179.844 166H184.987V171.143H179.844V166ZM179.844 160.857H184.987V166H179.844V160.857ZM179.844 155.714H184.987V160.857H179.844V155.714ZM179.844 171.143H184.987V176.286H179.844V171.143ZM179.844 176.286H184.987V181.429H179.844V176.286ZM179.844 181.429H184.987V186.571H179.844V181.429ZM184.987 176.286H190.129V181.429H184.987V176.286ZM184.987 171.143H190.129V176.286H184.987V171.143ZM184.987 181.429H190.129V186.571H184.987V181.429ZM184.987 186.571H190.129V191.714H184.987V186.571ZM179.844 191.714H184.987V196.857H179.844V191.714ZM179.844 186.571H184.987V191.714H179.844V186.571ZM179.844 196.857H184.987V202H179.844V196.857ZM184.987 196.857H190.129V202H184.987V196.857ZM184.987 191.714H190.129V196.857H184.987V191.714ZM190.129 196.857H195.272V202H190.129V196.857ZM195.272 196.857H200.415V202H195.272V196.857ZM200.415 196.857H205.558V202H200.415V196.857ZM200.415 191.714H205.558V196.857H200.415V191.714ZM195.272 191.714H200.415V196.857H195.272V191.714ZM190.129 191.714H195.272V196.857H190.129V191.714ZM190.129 150.571H195.272V155.714H190.129V150.571ZM195.272 150.571H200.415V155.714H195.272V150.571ZM200.415 150.571H205.558V155.714H200.415V150.571ZM205.558 150.571H210.701V155.714H205.558V150.571ZM200.415 155.714H205.558V160.857H200.415V155.714ZM195.272 155.714H200.415V160.857H195.272V155.714ZM190.129 155.714H195.272V160.857H190.129V155.714ZM190.129 176.286H195.272V181.429H190.129V176.286ZM195.272 171.143H200.415V176.286H195.272V171.143ZM190.129 171.143H195.272V176.286H190.129V171.143ZM195.272 176.286H200.415V181.429H195.272V176.286ZM205.558 155.714H210.701V160.857H205.558V155.714ZM205.558 191.714H210.701V196.857H205.558V191.714ZM205.558 196.857H210.701V202H205.558V196.857ZM200.415 171.143H205.558V176.286H200.415V171.143ZM200.415 176.286H205.558V181.429H200.415V176.286ZM226.129 150.571H231.272V155.714H226.129V150.571ZM220.987 150.571H226.129V155.714H220.987V150.571ZM220.987 155.714H226.129V160.857H220.987V155.714ZM226.129 155.714H231.272V160.857H226.129V155.714ZM231.272 155.714H236.415V160.857H231.272V155.714ZM231.272 150.571H236.415V155.714H231.272V150.571ZM236.415 150.571H241.558V155.714H236.415V150.571ZM241.558 150.571H246.701V155.714H241.558V150.571ZM241.558 155.714H246.701V160.857H241.558V155.714ZM236.415 155.714H241.558V160.857H236.415V155.714ZM236.415 160.857H241.558V166H236.415V160.857ZM241.558 160.857H246.701V166H241.558V160.857ZM246.701 155.714H251.844V160.857H246.701V155.714ZM246.701 160.857H251.844V166H246.701V160.857ZM246.701 166H251.844V171.143H246.701V166ZM246.701 171.143H251.844V176.286H246.701V171.143ZM246.701 176.286H251.844V181.429H246.701V176.286ZM246.701 181.429H251.844V186.571H246.701V181.429ZM246.701 186.571H251.844V191.714H246.701V186.571ZM246.701 191.714H251.844V196.857H246.701V191.714ZM241.558 191.714H246.701V196.857H241.558V191.714ZM241.558 186.571H246.701V191.714H241.558V186.571ZM241.558 181.429H246.701V186.571H241.558V181.429ZM241.558 176.286H246.701V181.429H241.558V176.286ZM241.558 171.143H246.701V176.286H241.558V171.143ZM241.558 166H246.701V171.143H241.558V166ZM236.415 186.571H241.558V191.714H236.415V186.571ZM236.415 191.714H241.558V196.857H236.415V191.714ZM241.558 196.857H246.701V202H241.558V196.857ZM236.415 196.857H241.558V202H236.415V196.857ZM231.272 196.857H236.415V202H231.272V196.857ZM231.272 191.714H236.415V196.857H231.272V191.714ZM226.129 196.857H231.272V202H226.129V196.857ZM220.987 196.857H226.129V202H220.987V196.857ZM220.987 191.714H226.129V196.857H220.987V191.714ZM226.129 191.714H231.272V196.857H226.129V191.714ZM220.987 186.571H226.129V191.714H220.987V186.571ZM215.844 191.714H220.987V196.857H215.844V191.714ZM215.844 186.571H220.987V191.714H215.844V186.571ZM215.844 181.429H220.987V186.571H215.844V181.429ZM215.844 176.286H220.987V181.429H215.844V176.286ZM215.844 171.143H220.987V176.286H215.844V171.143ZM215.844 166H220.987V171.143H215.844V166ZM215.844 160.857H220.987V166H215.844V160.857ZM220.987 160.857H226.129V166H220.987V160.857ZM215.844 155.714H220.987V160.857H215.844V155.714ZM220.987 166H226.129V171.143H220.987V166ZM220.987 171.143H226.129V176.286H220.987V171.143ZM220.987 176.286H226.129V181.429H220.987V176.286ZM220.987 181.429H226.129V186.571H220.987V181.429ZM215.844 196.857H220.987V202H215.844V196.857ZM215.844 150.571H220.987V155.714H215.844V150.571ZM262.143 155.714H267.286V160.857H262.143V155.714ZM282.714 155.714H287.857V160.857H282.714V155.714ZM282.714 160.857H287.857V166H282.714V160.857ZM287.857 155.714H293V160.857H287.857V155.714ZM287.857 160.857H293V166H287.857V160.857ZM287.857 166H293V171.143H287.857V166ZM287.857 171.143H293V176.286H287.857V171.143ZM287.857 176.286H293V181.429H287.857V176.286ZM287.857 181.429H293V186.571H287.857V181.429ZM287.857 186.571H293V191.714H287.857V186.571ZM287.857 191.714H293V196.857H287.857V191.714ZM282.714 191.714H287.857V196.857H282.714V191.714ZM282.714 186.571H287.857V191.714H282.714V186.571ZM282.714 181.429H287.857V186.571H282.714V181.429ZM282.714 176.286H287.857V181.429H282.714V176.286ZM282.714 171.143H287.857V176.286H282.714V171.143ZM282.714 166H287.857V171.143H282.714V166ZM277.571 186.571H282.714V191.714H277.571V186.571ZM277.571 191.714H282.714V196.857H277.571V191.714ZM282.714 196.857H287.857V202H282.714V196.857ZM277.571 196.857H282.714V202H277.571V196.857ZM272.429 196.857H277.571V202H272.429V196.857ZM272.429 191.714H277.571V196.857H272.429V191.714ZM267.286 196.857H272.429V202H267.286V196.857ZM262.143 196.857H267.286V202H262.143V196.857ZM262.143 191.714H267.286V196.857H262.143V191.714ZM267.286 191.714H272.429V196.857H267.286V191.714ZM267.286 186.571H272.429V191.714H267.286V186.571ZM262.143 186.571H267.286V191.714H262.143V186.571ZM257 191.714H262.143V196.857H257V191.714ZM257 186.571H262.143V191.714H257V186.571ZM257 181.429H262.143V186.571H257V181.429ZM257 176.286H262.143V181.429H257V176.286ZM257 171.143H262.143V176.286H257V171.143ZM257 166H262.143V171.143H257V166ZM257 160.857H262.143V166H257V160.857ZM262.143 160.857H267.286V166H262.143V160.857ZM257 155.714H262.143V160.857H257V155.714ZM262.143 166H267.286V171.143H262.143V166ZM262.143 171.143H267.286V176.286H262.143V171.143ZM262.143 176.286H267.286V181.429H262.143V176.286ZM262.143 181.429H267.286V186.571H262.143V181.429ZM257 150.571H262.143V155.714H257V150.571ZM262.143 150.571H267.286V155.714H262.143V150.571ZM282.714 150.571H287.857V155.714H282.714V150.571ZM287.857 150.571H293V155.714H287.857V150.571ZM159.266 253.571H164.408V258.714H159.266V253.571ZM164.408 253.571H169.551V258.714H164.408V253.571ZM169.551 253.571H174.694V258.714H169.551V253.571ZM174.694 253.571H179.837V258.714H174.694V253.571ZM179.837 253.571H184.98V258.714H179.837V253.571ZM184.98 253.571H190.123V258.714H184.98V253.571ZM184.98 258.714H190.123V263.857H184.98V258.714ZM179.837 258.714H184.98V263.857H179.837V258.714ZM174.694 258.714H179.837V263.857H174.694V258.714ZM169.551 258.714H174.694V263.857H169.551V258.714ZM164.408 258.714H169.551V263.857H164.408V258.714ZM159.266 258.714H164.408V263.857H159.266V258.714ZM190.123 258.714H195.266V263.857H190.123V258.714ZM184.98 263.857H190.123V269H184.98V263.857ZM190.123 263.857H195.266V269H190.123V263.857ZM190.123 269H195.266V274.143H190.123V269ZM190.123 274.143H195.266V279.286H190.123V274.143ZM184.98 274.143H190.123V279.286H184.98V274.143ZM184.98 269H190.123V274.143H184.98V269ZM184.98 279.286H190.123V284.429H184.98V279.286ZM184.98 284.429H190.123V289.571H184.98V284.429ZM179.837 284.429H184.98V289.571H179.837V284.429ZM179.837 279.286H184.98V284.429H179.837V279.286ZM174.694 279.286H179.837V284.429H174.694V279.286ZM174.694 284.429H179.837V289.571H174.694V284.429ZM169.551 284.429H174.694V289.571H169.551V284.429ZM169.551 279.286H174.694V284.429H169.551V279.286ZM164.408 279.286H169.551V284.429H164.408V279.286ZM159.266 279.286H164.408V284.429H159.266V279.286ZM159.266 284.429H164.408V289.571H159.266V284.429ZM164.408 284.429H169.551V289.571H164.408V284.429ZM159.266 263.857H164.408V269H159.266V263.857ZM164.408 263.857H169.551V269H164.408V263.857ZM164.408 269H169.551V274.143H164.408V269ZM164.408 274.143H169.551V279.286H164.408V274.143ZM159.266 269H164.408V274.143H159.266V269ZM159.266 274.143H164.408V279.286H159.266V274.143ZM159.266 289.571H164.408V294.714H159.266V289.571ZM164.408 289.571H169.551V294.714H164.408V289.571ZM164.408 294.714H169.551V299.857H164.408V294.714ZM164.408 299.857H169.551V305H164.408V299.857ZM159.266 299.857H164.408V305H159.266V299.857ZM159.266 294.714H164.408V299.857H159.266V294.714ZM190.123 279.286H195.266V284.429H190.123V279.286ZM200.422 253.571H205.565V258.714H200.422V253.571ZM205.565 253.571H210.708V258.714H205.565V253.571ZM205.565 258.714H210.708V263.857H205.565V258.714ZM205.565 263.857H210.708V269H205.565V263.857ZM205.565 269H210.708V274.143H205.565V269ZM200.422 269H205.565V274.143H200.422V269ZM200.422 263.857H205.565V269H200.422V263.857ZM200.422 258.714H205.565V263.857H200.422V258.714ZM200.422 274.143H205.565V279.286H200.422V274.143ZM200.422 279.286H205.565V284.429H200.422V279.286ZM200.422 284.429H205.565V289.571H200.422V284.429ZM205.565 279.286H210.708V284.429H205.565V279.286ZM205.565 274.143H210.708V279.286H205.565V274.143ZM205.565 284.429H210.708V289.571H205.565V284.429ZM205.565 289.571H210.708V294.714H205.565V289.571ZM200.422 294.714H205.565V299.857H200.422V294.714ZM200.422 289.571H205.565V294.714H200.422V289.571ZM200.422 299.857H205.565V305H200.422V299.857ZM205.565 299.857H210.708V305H205.565V299.857ZM205.565 294.714H210.708V299.857H205.565V294.714ZM210.708 299.857H215.85V305H210.708V299.857ZM215.85 299.857H220.993V305H215.85V299.857ZM220.993 299.857H226.136V305H220.993V299.857ZM220.993 294.714H226.136V299.857H220.993V294.714ZM215.85 294.714H220.993V299.857H215.85V294.714ZM210.708 294.714H215.85V299.857H210.708V294.714ZM241.551 258.714H246.694V263.857H241.551V258.714ZM246.694 258.714H251.837V263.857H246.694V258.714ZM246.694 253.571H251.837V258.714H246.694V253.571ZM251.837 258.714H256.98V263.857H251.837V258.714ZM251.837 263.857H256.98V269H251.837V263.857ZM256.98 263.857H262.123V269H256.98V263.857ZM246.694 263.857H251.837V269H246.694V263.857ZM241.551 263.857H246.694V269H241.551V263.857ZM236.408 263.857H241.551V269H236.408V263.857ZM236.408 269H241.551V274.143H236.408V269ZM231.266 269H236.408V274.143H231.266V269ZM241.551 269H246.694V274.143H241.551V269ZM236.408 274.143H241.551V279.286H236.408V274.143ZM236.408 279.286H241.551V284.429H236.408V279.286ZM236.408 284.429H241.551V289.571H236.408V284.429ZM241.551 284.429H246.694V289.571H241.551V284.429ZM246.694 284.429H251.837V289.571H246.694V284.429ZM251.837 284.429H256.98V289.571H251.837V284.429ZM256.98 284.429H262.123V289.571H256.98V284.429ZM262.123 284.429H267.266V289.571H262.123V284.429ZM262.123 279.286H267.266V284.429H262.123V279.286ZM262.123 274.143H267.266V279.286H262.123V274.143ZM262.123 269H267.266V274.143H262.123V269ZM256.98 269H262.123V274.143H256.98V269ZM251.837 269H256.98V274.143H251.837V269ZM256.98 274.143H262.123V279.286H256.98V274.143ZM256.98 279.286H262.123V284.429H256.98V279.286ZM256.98 289.571H262.123V294.714H256.98V289.571ZM262.123 289.571H267.266V294.714H262.123V289.571ZM262.123 294.714H267.266V299.857H262.123V294.714ZM262.123 299.857H267.266V305H262.123V299.857ZM256.98 299.857H262.123V305H256.98V299.857ZM256.98 294.714H262.123V299.857H256.98V294.714ZM251.837 289.571H256.98V294.714H251.837V289.571ZM246.694 289.571H251.837V294.714H246.694V289.571ZM241.551 289.571H246.694V294.714H241.551V289.571ZM236.408 289.571H241.551V294.714H236.408V289.571ZM236.408 294.714H241.551V299.857H236.408V294.714ZM236.408 299.857H241.551V305H236.408V299.857ZM231.266 299.857H236.408V305H231.266V299.857ZM231.266 294.714H236.408V299.857H231.266V294.714ZM231.266 289.571H236.408V294.714H231.266V289.571ZM231.266 284.429H236.408V289.571H231.266V284.429ZM231.266 279.286H236.408V284.429H231.266V279.286ZM231.266 274.143H236.408V279.286H231.266V274.143ZM272.422 253.571H277.565V258.714H272.422V253.571ZM277.565 253.571H282.708V258.714H277.565V253.571ZM277.565 258.714H282.708V263.857H277.565V258.714ZM277.565 263.857H282.708V269H277.565V263.857ZM272.422 263.857H277.565V269H272.422V263.857ZM272.422 258.714H277.565V263.857H272.422V258.714ZM272.422 269H277.565V274.143H272.422V269ZM272.422 274.143H277.565V279.286H272.422V274.143ZM277.565 274.143H282.708V279.286H277.565V274.143ZM277.565 269H282.708V274.143H277.565V269ZM277.565 279.286H282.708V284.429H277.565V279.286ZM282.708 279.286H287.85V284.429H282.708V279.286ZM282.708 274.143H287.85V279.286H282.708V274.143ZM282.708 284.429H287.85V289.571H282.708V284.429ZM287.85 284.429H292.993V289.571H287.85V284.429ZM287.85 279.286H292.993V284.429H287.85V279.286ZM292.993 279.286H298.136V284.429H292.993V279.286ZM292.993 284.429H298.136V289.571H292.993V284.429ZM298.136 284.429H303.279V289.571H298.136V284.429ZM298.136 279.286H303.279V284.429H298.136V279.286ZM298.136 274.143H303.279V279.286H298.136V274.143ZM303.279 274.143H308.422V279.286H303.279V274.143ZM303.279 279.286H308.422V284.429H303.279V279.286ZM303.279 269H308.422V274.143H303.279V269ZM303.279 263.857H308.422V269H303.279V263.857ZM303.279 258.714H308.422V263.857H303.279V258.714ZM303.279 253.571H308.422V258.714H303.279V253.571ZM308.422 253.571H313.565V258.714H308.422V253.571ZM308.422 258.714H313.565V263.857H308.422V258.714ZM308.422 263.857H313.565V269H308.422V263.857ZM308.422 269H313.565V274.143H308.422V269ZM308.422 274.143H313.565V279.286H308.422V274.143ZM287.85 289.571H292.993V294.714H287.85V289.571ZM287.85 294.714H292.993V299.857H287.85V294.714ZM287.85 299.857H292.993V305H287.85V299.857ZM292.993 299.857H298.136V305H292.993V299.857ZM292.993 294.714H298.136V299.857H292.993V294.714ZM292.993 289.571H298.136V294.714H292.993V289.571Z" fill="white"/>
</g>
<defs>
<clipPath id="clip0_1_5">
<rect width="456" height="456" fill="white"/>
</clipPath>
</defs>
</svg>
